{"title":"Fantastic.Four.2015.HDTS.XviD.AC3-VAiN","uid":12219769,"size":1521152382,"categoryP":"video","categoryS":"movies","magnet":"?xt=urn:btih:517750cfb5d96e980390b8ecd1b7e8252771b57b&amp;dn=Fantastic.Four.2015.HDTS.XviD.AC3-VAiN&amp;tr=udp%3A%2F%2Ftracker.openbittorrent.com%3A80&amp;tr=udp%3A%2F%2Fopen.demonii.com%3A1337&amp;tr=udp%3A%2F%2Ftracker.coppersurfer.tk%3A6969&amp;tr=udp%3A%2F%2Fexodus.desync.com%3A6969","seeders":0,"leechers":1,"uploader":"TvTeam","files":5,"time":1439338019,"description":"------------------------------------------------------------------------\n\n &lt;a href=&quot; https://www.torrenting.com&quot; rel=&quot;nofollow&quot; target=&quot;_NEW&quot;&gt; https://www.torrenting.com&lt;/a&gt;\n\nSign up is OPEN - for time being. Come and have fun\n\n.......................................................................................................................[img]http://i.imgur.com/FJi0aRt.png[/img] \n\n[b]P R E S E N T S . . . .[/b] \n\nFantastic.Four.2015.HDTS.XviD.AC3-VAiN\n\niMDB........: http://www.imdb.com/title/tt1502712/\n\nPLOT........:Four young outsiders teleport to an alternate and dangerous universe which alters their physical form in shocking ways. The four must learn to harness their new abilities and work together to save Earth from a former friend turned enemy.\n\n\nT E C H N i C A L . i N F O . . .\n\nBasic Information\nFormat                      : MPEG-4 Visual\nFormat profile              : Advanced Simple@L5\nFormat settings, BVOP       : 2\nFormat settings, QPel       : No\nFormat settings, GMC        : No warppoints\nFormat settings, Matrix     : Default (H.263)\nMuxing mode                 : Packed bitstream\nCodec ID                    : XVID\nCodec ID/Hint               : XviD\nDuration                    : 1h 32mn\nBit rate                    : 1 854 Kbps\nWidth                       : 720 pixels\nHeight                      : 288 pixels\nDisplay aspect ratio        : 2.500\nFrame rate                  : 29.970 fps\nColor space                 : YUV\nChroma subsampling          : 4:2:0\nBit depth                   : 8 bits\nScan type                   : Progressive\nCompression mode            : Lossy\nBits/(Pixel*Frame)          : 0.298\nStream size                 : 1.20 GiB (87%)\nWriting library             : XviD 67\n\nAudio\nID                          : 1\nFormat                      : AC-3\nFormat/Info                 : Audio Coding 3\nMode extension              : CM (complete main)\nFormat settings, Endianness : Big\nCodec ID                    : 2000\nDuration                    : 1h 32mn\nBit rate mode               : Constant\nBit rate                    : 256 Kbps\nChannel(s)                  : 2 channels\nChannel positions           : Front: L R\nSampling rate               : 48.0 KHz\nCompression mode            : Lossy\nStream size                 : 169 MiB (12%)\nAlignment                   : Split accross interleaves\nInterleave, duration        : 33 ms (1.00 video frame)\nInterleave, preload duratio : 500 ms\n\n\n\n\nE N C O D E R S . N O T E S . . .       \n\nSOURCE......: ViDEO...4F.7p.DVDS.LATok\n............: AUDiO...HiVE-CM8 release\nSAMPLE......: Yippers 2 of em' \nADDED NOTE..: video was really nice, however did tweak a few things here and there. rgb, lvls, denoise, sharp &amp; resized. cropped, chopped rotated &amp; what not. audio waz sexy as fck just a few filters then muxed ova this sexy mofo and well.... here we are!!! oh the lulz\n\n\n\nS C R E E N . S H O T S . . .\n\n[img]http://i.imgur.com/0i4iBKD.png[/img]\n\n[img]http://i.imgur.com/6Mz6lsr.png[/img]\n\n[img]http://i.imgur.com/wRB5h8S.png[/img]\n\n[img]http://i.imgur.com/VZDAP1i.png[/img]\n\n[img]http://i.imgur.com/9oLM88z.png[/img]\n\n[img]http://i.imgur.com/BghrMgi.png[/img]\n\n[img]http://i.imgur.com/buliIyc.png[/img]\n\n[img]http://i.imgur.com/4QYUx8z.png[/img]\n\n\n\n\n\ngot any funny stories, jokes, nakid pix of ya sisters/gf's or just want to reach \n\nout to us giz us some treats send to... &lt;a class=&quot;__cf_email__&quot; href=&quot;/cdn-cgi/l/email-protection&quot; data-cfemail=&quot;8fd9cee6c1cfe7fafce7e2eee6e3a1e2ea&quot;&gt;[email&amp;#160;protected]&lt;/a&gt;&lt;script data-cfhash='f9e31' type=&quot;text/javascript&quot;&gt;\n/* &lt;![CDATA[ */!function(){try{var t=&quot;currentScript&quot;in document?document.currentScript:function(){for(var t=document.getElementsByTagName(&quot;script&quot;),e=t.length;e--;)if(t[e].getAttribute(&quot;data-cfhash&quot;))return t[e]}();if(t&amp;&amp;t.previousSibling){var e,r,n,i,c=t.previousSibling,a=c.getAttribute(&quot;data-cfemail&quot;);if(a){for(e=&quot;&quot;,r=parseInt(a.substr(0,2),16),n=2;a.length-n;n+=2)i=parseInt(a.substr(n,2),16)^r,e+=String.fromCharCode(i);e=document.createTextNode(e),c.parentNode.replaceChild(e,c)}t.parentNode.removeChild(t);}}catch(u){}}()/* ]]&gt; */&lt;/script&gt; ;) \n\n***DISCLAiMER*** as you can see there were no special friend that passed us some \n\nspecial vobs. what you see here is work put into a source. sum may like others may \n\njust hate...VAiN stands behind it's QUALiTY and don't claim to be professional \n\nHDTSCAMBDBRiPDVDRiPSCRHQ ENCODERS. just a cpl of fella's nipping at ya mums \n\nknickers..... \n\n\nGREETZ:\n\nHive-CM8 | Rx | REFiLL | JEDI | DREAMER n' LADY | 26k |Unevano | EsX | TOFFEE\nGH0ST | ViSiON | Sugarb | DeviAntsRUs | STARLETS | GUSH | A.C.A.B. | jamie111 | TED |\n\nAnd all the release grps that don't hide behind new names, or live in the past n \n\nglory of old has been that neva were release grps\n\nCheer's to our wives n girlfriends... may they neva meet :shifty","torrent":{"xt":"urn:btih:517750cfb5d96e980390b8ecd1b7e8252771b57b","amp;dn":"Fantastic.Four.2015.HDTS.XviD.AC3-VAiN","amp;tr":["udp%3A%2F%2Ftracker.openbittorrent.com%3A80","udp%3A%2F%2Fopen.demonii.com%3A1337","udp%3A%2F%2Ftracker.coppersurfer.tk%3A6969","udp%3A%2F%2Fexodus.desync.com%3A6969"],"infoHash":"517750cfb5d96e980390b8ecd1b7e8252771b57b","infoHashBuffer":{"type":"Buffer","data":[81,119,80,207,181,217,110,152,3,144,184,236,209,183,232,37,39,113,181,123]},"announce":[],"urlList":[]}}